<svg width="30" height="30" viewBox="0 0 30 30" fill="none" xmlns="http://www.w3.org/2000/svg">
<g id="11500957181644666555 1">
<g id="Layer 24">
<path id="Vector" d="M28.8656 6.03755C28.7783 5.9241 28.6661 5.83216 28.5377 5.76878C28.4094 5.7054 28.2682 5.67227 28.125 5.67192H6.68438L5.57344 2.41411C5.5108 2.22866 5.39169 2.06747 5.23281 1.95314C5.07392 1.83881 4.88324 1.77708 4.6875 1.77661H1.875C1.62636 1.77661 1.3879 1.87538 1.21209 2.0512C1.03627 2.22701 0.9375 2.46547 0.9375 2.71411C0.9375 2.96275 1.03627 3.20121 1.21209 3.37702C1.3879 3.55284 1.62636 3.65161 1.875 3.65161H4.01719L10.1812 21.7688C10.2447 21.9534 10.3641 22.1135 10.5229 22.227C10.6818 22.3404 10.872 22.4015 11.0672 22.4016H24.375C24.6236 22.4016 24.8621 22.3028 25.0379 22.127C25.2137 21.9512 25.3125 21.7128 25.3125 21.4641C25.3125 21.2155 25.2137 20.977 25.0379 20.8012C24.8621 20.6254 24.6236 20.5266 24.375 20.5266H11.7188L11.0344 18.5063H25.3125C25.5194 18.5072 25.7208 18.4397 25.8852 18.3142C26.0497 18.1887 26.1681 18.0123 26.2219 17.8125L29.0344 6.85317C29.071 6.71341 29.0748 6.56708 29.0455 6.42559C29.0163 6.28411 28.9547 6.1513 28.8656 6.03755ZM24.5859 16.6313H10.4156L7.32188 7.54692H26.9156L24.5859 16.6313Z" fill="white"/>
<path id="Vector_2" d="M14.0623 23.1985C10.7436 23.3016 10.7436 28.1157 14.0623 28.2235C17.3811 28.125 17.3811 23.3016 14.0623 23.1985ZM14.0623 26.3485C13.8932 26.3485 13.7311 26.2813 13.6115 26.1618C13.492 26.0422 13.4248 25.8801 13.4248 25.711C13.4248 25.5419 13.492 25.3798 13.6115 25.2602C13.7311 25.1407 13.8932 25.0735 14.0623 25.0735C14.2314 25.0735 14.3935 25.1407 14.5131 25.2602C14.6326 25.3798 14.6998 25.5419 14.6998 25.711C14.6998 25.8801 14.6326 26.0422 14.5131 26.1618C14.3935 26.2813 14.2314 26.3485 14.0623 26.3485Z" fill="white"/>
<path id="Vector_3" d="M22.2234 23.1985C18.9047 23.3016 18.9047 28.1157 22.2234 28.2235C25.5422 28.125 25.5422 23.3016 22.2234 23.1985ZM22.2234 26.3485C22.0544 26.3485 21.8922 26.2813 21.7727 26.1618C21.6531 26.0422 21.5859 25.8801 21.5859 25.711C21.5859 25.5419 21.6531 25.3798 21.7727 25.2602C21.8922 25.1407 22.0544 25.0735 22.2234 25.0735C22.3925 25.0735 22.5547 25.1407 22.6742 25.2602C22.7938 25.3798 22.8609 25.5419 22.8609 25.711C22.8609 25.8801 22.7938 26.0422 22.6742 26.1618C22.5547 26.2813 22.3925 26.3485 22.2234 26.3485Z" fill="white"/>
</g>
</g>
</svg>
