<svg xmlns="http://www.w3.org/2000/svg" viewBox="0 -0.00012213 371.8999939 362.9005127">
    <path d="M57.7 344.2v18.6l-57.7.1v-64h18.6l.1 45.4ZM130.4 344.2v18.6l-64.2.1-.1-64.1 64.1-.1v18.6l-45.5.1v4.2l45.5-.1v18.6l-45.5.1v4.2ZM221.4 298.6l.1 64.1h-18.6v-27.1l-14.6 27.3h-16.4l-14.7-27.3v27.1h-18.6l-.1-64.1h19.9l21.6 40.2 21.5-40.2ZM296.5 330.8a31.71 31.71 0 0 1-2.5 12.5 30.69 30.69 0 0 1-6.9 10.2 32.27 32.27 0 0 1-10.2 6.9 31.71 31.71 0 0 1-12.5 2.5h-5.8a31.71 31.71 0 0 1-12.5-2.5 30.69 30.69 0 0 1-10.2-6.9 32.27 32.27 0 0 1-6.9-10.2 32.5 32.5 0 0 1 0-25 30.69 30.69 0 0 1 6.9-10.2 32.27 32.27 0 0 1 10.2-6.9 31.71 31.71 0 0 1 12.5-2.5h5.8a31.71 31.71 0 0 1 12.5 2.5 30.69 30.69 0 0 1 10.2 6.9 32.27 32.27 0 0 1 6.9 10.2 31 31 0 0 1 2.5 12.5Zm-18.6 0a13.42 13.42 0 0 0-13.5-13.4h-5.8a13.45 13.45 0 0 0 .1 26.9h5.8a13.49 13.49 0 0 0 13.4-13.5ZM371.9 362.9h-21.2l-30.3-37.6.1 37.6h-18.6l-.1-64.1H323l30.3 37.6-.1-37.6h18.6ZM185.9 0a136.25 136.25 0 1 0 136.4 136.2A136.23 136.23 0 0 0 185.9 0Zm71.6 142.6a11.4 11.4 0 0 1-3 1.8 15.23 15.23 0 0 1-3.8 1.1 27.46 27.46 0 0 1-9-.2c-6.3-1.1-12.8-4-18.8-7.5a100.93 100.93 0 0 1-17.1-12.9c-2.7-2.4-5.2-5-7.7-7.7s-4.8-5.5-7-8.4a2.94 2.94 0 0 0-4.8 3.4c2.1 3.2 4.2 6.3 6.5 9.4s4.7 6 7.3 8.9a117.1 117.1 0 0 0 17.2 15.7c6.4 4.6 13.4 8.7 21.6 11a42.93 42.93 0 0 0 8.1 1.5 2.11 2.11 0 0 1 1.6 3.2 112.31 112.31 0 0 1-16.2 20.8c-19 19-43.3 29.4-65.6 29.4a60.74 60.74 0 0 1-26.8-5.9l-1.9-.9a2 2 0 0 0-2 .1l-1.8 1.1a18.2 18.2 0 0 1-9.5 3 10.94 10.94 0 0 1-7.6-2.8c-3.7-3.7-3.8-10.5-.2-16.6l1.1-1.9a1.82 1.82 0 0 0 0-2l-1-1.9c-9.7-17.9-8.8-41.4.9-63.3a2.05 2.05 0 0 1 3.8.1 86.86 86.86 0 0 0 7.2 13.5 123.32 123.32 0 0 0 14.8 18c2.7 2.7 5.6 5.3 8.5 7.8s6 4.8 9.1 7a2.84 2.84 0 0 0 3.9-.5 2.87 2.87 0 0 0-.3-4.1c-2.8-2.4-5.4-4.9-8-7.5s-5-5.3-7.3-8.1a108.16 108.16 0 0 1-12-17.7c-3.3-6.2-5.8-12.8-6.6-19.2a26.87 26.87 0 0 1 .2-9 13.15 13.15 0 0 1 1.2-3.5 5.3 5.3 0 0 0 .6-1 83 83 0 0 1 6.4-6.9c28-28 66.9-37.3 94.3-22.6l2 1.1a2 2 0 0 0 2.1-.1l1.9-1.2c6.4-4.1 13.5-4.2 17.4-.3s3.8 11.6-.7 18l-1.3 1.8a2.23 2.23 0 0 0-.2 2.1l1 2c7.3 15.1 7.5 33.7 1.5 51.9Z" />
</svg>